<svg width="242" height="61" viewBox="0 0 242 61" fill="none" xmlns="http://www.w3.org/2000/svg">
<g id="Group 77">
<g id="Group 85">
<path id="Vector" d="M75.573 10.2781C75.1296 8.46554 74.2649 6.81308 73.0648 5.48532C71.8648 4.15756 70.3713 3.20084 68.7332 2.71043C62.7356 0.900879 38.5999 0.900879 38.5999 0.900879C38.5999 0.900879 14.4632 0.955793 8.46664 2.76535C6.82856 3.25583 5.33518 4.21259 4.13522 5.54034C2.93526 6.86809 2.07058 8.52051 1.6273 10.333C-0.186751 22.1239 -0.890536 40.0892 1.67693 51.4078C2.12021 53.2203 2.98488 54.8728 4.18485 56.2005C5.38481 57.5283 6.87818 58.485 8.51627 58.9755C14.5133 60.7851 38.6495 60.7851 38.6495 60.7851C38.6495 60.7851 62.7857 60.7851 68.7828 58.9755C70.4209 58.485 71.9142 57.5283 73.1142 56.2005C74.3142 54.8728 75.1788 53.2203 75.6221 51.4078C77.535 39.6007 78.1248 21.6464 75.5725 10.2787L75.573 10.2781Z" fill="#FF0000"/>
<path id="Vector_2" d="M30.918 43.6755L50.9406 30.8434L30.918 18.0107V43.6755Z" fill="white"/>
<path id="Vector_3" d="M232.187 18.2849C234.813 18.2849 236.796 18.833 238.183 19.8748C239.571 20.9171 240.563 22.5619 241.157 24.8108C241.752 27.0591 241.999 30.1296 241.999 34.0782V40.4948H229.262V42.4686L229.461 47.8977C229.609 49.1043 229.857 49.9819 230.254 50.53C230.651 51.0786 231.294 51.3526 232.137 51.3526C233.277 51.3526 234.07 50.8595 234.466 49.8726C234.912 48.8852 235.111 47.2398 235.16 44.9915L241.752 45.4303C241.801 45.7592 241.801 46.198 241.801 46.7461C241.801 50.201 240.959 52.7788 239.224 54.4786C237.489 56.1783 235.111 57.0559 231.988 57.0559C228.222 57.0559 225.595 55.74 224.108 53.1627C222.622 50.5849 221.828 46.5265 221.828 41.0978V34.4621C221.997 25.1397 223.478 18.3121 232.187 18.2849ZM140.548 18.9977V46.4721C140.548 48.1174 140.697 49.3239 141.043 50.0368C141.747 51.5613 143.571 51.1717 144.562 50.4207C145.135 49.9927 145.596 49.4068 145.9 48.7209V18.9972H153.483V56.4523H147.536L146.892 51.8458H146.743C145.108 55.3007 142.679 57.0553 139.458 57.0553C134.5 57.0417 133.286 53.089 132.997 49.0745L132.979 48.7915C132.943 48.1835 132.922 47.5745 132.916 46.9653V18.9977H140.548H140.548ZM179.652 18.9977V46.4721C179.652 48.1174 179.8 49.3239 180.147 50.0368C180.851 51.5613 182.675 51.1717 183.666 50.4207C184.238 49.9927 184.7 49.4068 185.004 48.7209V18.9972H192.587V56.4523H186.64L185.995 51.8458H185.847C184.212 55.3007 181.783 57.0553 178.561 57.0553C173.603 57.0417 172.39 53.089 172.101 49.0745L172.082 48.7915C172.047 48.1835 172.026 47.5745 172.019 46.9653V18.9977H179.652ZM118.543 18.2849C121.021 18.2849 123.053 18.833 124.54 19.9846C126.026 21.1362 127.166 22.8914 127.86 25.304C128.554 27.717 128.901 30.9523 128.901 34.9558V40.3844C128.901 44.3879 128.554 47.5688 127.86 49.9813C127.166 52.395 126.076 54.1496 124.54 55.3012C123.004 56.3979 120.922 57.0009 118.345 57.0009C115.668 57.0559 113.586 56.4529 112.05 55.3561C110.514 54.2045 109.423 52.4493 108.779 50.0368C108.135 47.6237 107.837 44.4429 107.837 40.4399V35.0102C107.837 31.0067 108.184 27.7165 108.928 25.3034C109.671 22.836 110.811 21.0808 112.397 19.9846C113.983 18.8874 116.015 18.2844 118.543 18.2844V18.2849ZM204.482 3.25879V23.0007H204.532C205.225 21.575 206.117 20.4234 207.357 19.5458C208.514 18.6848 209.877 18.2266 211.272 18.23C213.106 18.23 214.493 18.7781 215.534 19.8199C216.575 20.9171 217.318 22.6168 217.764 24.975C218.197 27.2594 218.442 30.4188 218.457 34.403L218.458 34.7916V40.7139C218.458 46.2524 217.814 50.3657 216.624 52.998C215.386 55.6302 213.502 56.9466 210.925 56.9466C209.488 56.9466 208.199 56.5627 207.01 55.8498C205.958 55.1716 205.086 54.1991 204.481 53.0299L204.383 52.8332H204.234L203.441 56.3979H197.147V3.25931H204.482V3.25879ZM174.15 5.17817V11.9776H166.617V56.4523H159.183V11.9781H151.6V5.17869H174.151L174.15 5.17817ZM92.4236 5.17817L92.4284 5.19909C92.5007 5.55525 93.5027 10.4845 94.605 16.2274L94.6919 16.6824L94.8233 17.3702L94.9112 17.832L94.9552 18.0637L95.0431 18.5281L95.0871 18.7608L95.1745 19.2268L95.3021 19.9082C96.0466 23.8851 96.757 27.8734 97.1819 30.7331H97.3804C97.7873 28.1679 98.3786 24.885 99.0092 21.5332L99.1746 20.6577C99.2578 20.2194 99.341 19.7812 99.4251 19.3439L99.5546 18.6656C100.411 14.2238 101.293 9.788 102.2 5.3586L102.214 5.288L102.237 5.17817H109.82L101.047 39.782V56.3979H93.5637V39.8363H93.5141L84.8408 5.17765L92.4236 5.17817ZM118.394 24.0974C117.353 24.0974 116.659 24.7009 116.213 25.9624C115.767 27.2233 115.569 29.1427 115.569 31.8304V43.5109C115.569 46.2529 115.767 48.2816 116.164 49.4887C116.56 50.6947 117.304 51.2982 118.394 51.2982C119.435 51.2982 120.178 50.6947 120.624 49.4887C121.07 48.2816 121.268 46.2529 121.268 43.5109V31.8299C121.268 29.1427 121.07 27.1684 120.624 25.9619C120.178 24.7009 119.435 24.0974 118.394 24.0974ZM205.82 25.1947C205.216 25.8118 204.786 26.5727 204.531 27.5241L204.482 27.717V48.9945C205.096 50.1461 205.969 50.9138 207.505 50.9688C208.298 50.9688 208.942 50.6398 209.438 49.9819C209.934 49.3239 210.28 48.2267 210.479 46.6912C210.669 45.2174 210.768 43.1872 210.776 40.6015V35.3946C210.776 32.4334 210.677 30.185 210.528 28.5946C210.33 27.0042 210.082 25.8526 209.636 25.1947C208.774 23.8234 206.91 23.8401 205.82 25.1947ZM232.038 23.9332C231.196 23.9881 230.6 24.2622 230.254 24.7559C229.857 25.304 229.609 26.1266 229.461 27.3332C229.315 28.5151 229.265 32.6468 229.262 32.812V35.5044H234.813V33.13V33.1755C234.81 34.0055 234.794 32.6938 234.76 31.0835L234.756 30.867C234.724 29.4518 234.679 27.8739 234.615 27.3332C234.466 26.0717 234.218 25.1941 233.822 24.7009C233.426 24.2072 232.831 23.9332 232.038 23.9332H232.038Z" fill="#282828"/>
</g>
</g>
</svg>
