<svg width="74" height="74" viewBox="0 0 74 74" fill="none" xmlns="http://www.w3.org/2000/svg">
<g id="skill-icons:linkedin" clip-path="url(#clip0_1_74)">
<g id="Group">
<path id="Vector" d="M56.6562 0H17.3438C7.76506 0 0 7.76506 0 17.3438V56.6562C0 66.2349 7.76506 74 17.3438 74H56.6562C66.2349 74 74 66.2349 74 56.6562V17.3438C74 7.76506 66.2349 0 56.6562 0Z" fill="white"/>
<path id="Vector_2" d="M56.6562 0H17.3438C7.76506 0 0 7.76506 0 17.3438V56.6562C0 66.2349 7.76506 74 17.3438 74H56.6562C66.2349 74 74 66.2349 74 56.6562V17.3438C74 7.76506 66.2349 0 56.6562 0Z" fill="#0A66C2"/>
<path id="Vector_3" d="M53.3942 62.9246H61.855C62.1616 62.9246 62.4557 62.8028 62.6725 62.586C62.8894 62.3692 63.0112 62.0752 63.0113 61.7686L63.0156 43.8924C63.0156 34.549 61.0023 27.3673 50.0835 27.3673C45.9329 27.2129 42.0187 29.3526 39.9065 32.9254C39.8962 32.9427 39.8805 32.9562 39.8618 32.9638C39.843 32.9714 39.8224 32.9726 39.8029 32.9674C39.7834 32.9621 39.7661 32.9506 39.7538 32.9346C39.7415 32.9186 39.7347 32.899 39.7345 32.8788V29.3861C39.7345 29.0794 39.6127 28.7853 39.3959 28.5685C39.179 28.3517 38.8849 28.2298 38.5783 28.2298H30.549C30.2423 28.2298 29.9482 28.3517 29.7314 28.5685C29.5146 28.7853 29.3927 29.0794 29.3927 29.3861V61.7669C29.3927 62.0735 29.5146 62.3676 29.7314 62.5845C29.9482 62.8013 30.2423 62.9231 30.549 62.9231H39.0093C39.3159 62.9231 39.61 62.8013 39.8269 62.5845C40.0437 62.3676 40.1655 62.0735 40.1655 61.7669V45.7606C40.1655 41.2348 41.024 36.8517 46.635 36.8517C52.1662 36.8517 52.2379 42.0306 52.2379 46.0537V61.7683C52.2379 62.075 52.3597 62.3691 52.5766 62.5859C52.7934 62.8028 53.0875 62.9246 53.3942 62.9246ZM10.9844 17.2359C10.9844 20.6657 13.8076 23.4875 17.2374 23.4875C20.6662 23.4872 23.4878 20.6636 23.4878 17.2348C23.4872 13.8059 20.6654 10.9844 17.2362 10.9844C13.8062 10.9844 10.9844 13.8065 10.9844 17.2359ZM12.996 62.9246H21.4675C21.7742 62.9246 22.0683 62.8028 22.2851 62.5859C22.5019 62.3691 22.6238 62.075 22.6238 61.7683V29.3861C22.6238 29.0794 22.5019 28.7853 22.2851 28.5685C22.0683 28.3517 21.7742 28.2298 21.4675 28.2298H12.996C12.6893 28.2298 12.3952 28.3517 12.1784 28.5685C11.9615 28.7853 11.8397 29.0794 11.8397 29.3861V61.7683C11.8397 62.075 11.9615 62.3691 12.1784 62.5859C12.3952 62.8028 12.6893 62.9246 12.996 62.9246Z" fill="white"/>
</g>
</g>
<defs>
<clipPath id="clip0_1_74">
<rect width="74" height="74" fill="white"/>
</clipPath>
</defs>
</svg>
